<svg version="1.1" id="Layer_1" xmlns="http://www.w3.org/2000/svg" xmlns:xlink="http://www.w3.org/1999/xlink" x="0px" y="0px" viewBox="0 0 503.607 503.607" style="enable-background:new 0 0 503.607 503.607;" xml:space="preserve">
<g transform="translate(1 1)">
	<g>
		<g>
			<path fill="black" d="M250.803-1C112.311-1-1,111.472-1,250.803s113.311,251.803,251.803,251.803s251.803-113.311,251.803-251.803     S389.295-1,250.803-1z M250.803,485.82c-129.259,0-235.016-105.757-235.016-235.016S121.544,15.787,250.803,15.787     S485.82,121.544,485.82,250.803S380.062,485.82,250.803,485.82z"/>
			<path fill="black" d="M250.803,82.934c-92.328,0-167.869,75.541-167.869,167.869c0,9.233,0.839,18.466,2.518,26.859     c0,4.197,5.036,7.554,9.233,6.715c4.197,0,7.554-5.036,6.715-9.233c-0.839-7.554-1.679-15.948-1.679-24.341     c0-83.095,67.987-151.082,151.082-151.082s151.082,67.987,151.082,151.082s-67.987,151.082-151.082,151.082     c-37.546,0-72.902-13.128-100.64-38.692l47.211-47.211c15.018,12.315,33.579,18.755,53.429,18.755     c46.164,0,83.934-37.77,83.934-83.934s-37.771-83.934-83.934-83.934s-83.934,37.771-83.934,83.934c0,5.036,0,9.233,1.679,13.43     c0,4.197,5.036,7.554,9.233,6.715c4.197,0,7.554-5.036,6.715-9.233c-0.839-3.357-0.839-7.554-0.839-10.912     c0-36.931,30.216-67.148,67.148-67.148s67.148,30.216,67.148,67.148c0,36.931-30.216,67.148-67.148,67.148     c-15.558,0-29.913-4.784-41.581-13.815l24.479-24.479c5.017,2.993,10.867,4.721,17.102,4.721     c18.466,0,33.574-15.108,33.574-33.574s-15.108-33.574-33.574-33.574s-33.574,15.108-33.574,33.574     c0,6.235,1.728,12.085,4.721,17.102l-30.74,30.74c0,0,0,0,0,0s0,0,0,0l-58.753,58.753c0,0,0,0,0,0s0,0,0,0l-30.216,30.216     c-3.357,3.357-3.357,8.393,0,11.751c1.679,1.679,3.357,2.518,5.875,2.518c2.518,0,4.197-0.839,5.875-2.518l24.414-24.414     c30.456,28.223,70.69,43.719,112.399,43.719c92.328,0,167.869-74.702,167.869-167.869     C418.672,158.475,343.131,82.934,250.803,82.934z M250.803,234.016c9.233,0,16.787,7.554,16.787,16.787     c0,9.233-7.554,16.787-16.787,16.787c-4.18,0-8.006-1.559-10.952-4.11c-0.243-0.319-0.503-0.631-0.798-0.926     s-0.607-0.555-0.926-0.798c-2.551-2.947-4.11-6.773-4.11-10.952C234.016,241.57,241.57,234.016,250.803,234.016z"/>
			<path fill="#ef4444" d="M91.328,158.475c0-9.233-7.554-16.787-16.787-16.787s-16.787,7.554-16.787,16.787s7.554,16.787,16.787,16.787     S91.328,167.708,91.328,158.475z"/>
			<path fill="#ef4444" d="M317.951,326.344c0,9.233,7.554,16.787,16.787,16.787c9.233,0,16.787-7.554,16.787-16.787     c0-9.233-7.554-16.787-16.787-16.787C325.505,309.557,317.951,317.112,317.951,326.344z"/>
			<path fill="#ef4444" d="M359.918,108.115c9.233,0,16.787-7.554,16.787-16.787s-7.554-16.787-16.787-16.787s-16.787,7.554-16.787,16.787     S350.685,108.115,359.918,108.115z"/>
		</g>
	</g>
</g>
<g>
</g>
<g>
</g>
<g>
</g>
<g>
</g>
<g>
</g>
<g>
</g>
<g>
</g>
<g>
</g>
<g>
</g>
<g>
</g>
<g>
</g>
<g>
</g>
<g>
</g>
<g>
</g>
<g>
</g>
</svg>